<svg xmlns="http://www.w3.org/2000/svg" viewBox="0 0 168.84 48"><g id="Layer_2" data-name="Layer 2"><g id="Layer_1-2" data-name="Layer 1"><path d="M0,1.16H22.81V9.69H8.69V18H22.81v8.41H8.69V47.13H0Z"/><path d="M28.72,0h8.53V47.13H28.72Z"/><path d="M61,12.25a18,18,0,0,1,9,2.41,17.62,17.62,0,0,1,9,15.43,17.88,17.88,0,0,1-2.39,9,17.16,17.16,0,0,1-6.52,6.55A18,18,0,0,1,61,48a16.94,16.94,0,0,1-12.48-5.2,17.27,17.27,0,0,1-5.18-12.64,17.18,17.18,0,0,1,5.85-13.28A17,17,0,0,1,61,12.25Zm.14,8a8.76,8.76,0,0,0-6.62,2.77,9.83,9.83,0,0,0-2.65,7.08,10,10,0,0,0,2.62,7.18,8.71,8.71,0,0,0,6.62,2.75,8.84,8.84,0,0,0,6.67-2.78,9.93,9.93,0,0,0,2.66-7.15A9.87,9.87,0,0,0,67.79,23,8.81,8.81,0,0,0,61.11,20.28Z"/><path d="M84,13.13h7.31v4.28a9.18,9.18,0,0,1,3.16-3.85,7.64,7.64,0,0,1,4.31-1.31,7.92,7.92,0,0,1,3.47.88l-2.66,7.34a5.85,5.85,0,0,0-2.47-.75c-1.31,0-2.42.81-3.32,2.44S92.41,27,92.41,31.72l0,1.66V47.13H84Z"/><path d="M140.5,32.59H113.09a9.16,9.16,0,0,0,3.18,5.77,9.91,9.91,0,0,0,6.57,2.14,11.36,11.36,0,0,0,8.22-3.34l7.19,3.37a17,17,0,0,1-6.44,5.64,20.11,20.11,0,0,1-8.9,1.83q-8,0-13-5a17.14,17.14,0,0,1-5-12.64,17.79,17.79,0,0,1,5-12.92,16.83,16.83,0,0,1,12.58-5.14q8,0,13.06,5.14t5,13.58ZM132,25.88a8.55,8.55,0,0,0-3.34-4.63,9.62,9.62,0,0,0-5.77-1.78,10.22,10.22,0,0,0-6.26,2,11.06,11.06,0,0,0-3.13,4.41Z"/><path d="M168.22,17.88l-5.28,5.28Q159.71,20,157.09,20a3.69,3.69,0,0,0-2.25.61,1.82,1.82,0,0,0-.81,1.51,1.85,1.85,0,0,0,.52,1.27,9.51,9.51,0,0,0,2.54,1.58l3.13,1.56c3.29,1.63,5.55,3.28,6.78,5a9.82,9.82,0,0,1,1.84,5.94A9.82,9.82,0,0,1,165.52,45a12.77,12.77,0,0,1-8.93,3,14.2,14.2,0,0,1-11.87-5.81L150,36.47a12.13,12.13,0,0,0,3.51,2.83,7.81,7.81,0,0,0,3.58,1.08,4.28,4.28,0,0,0,2.72-.82,2.33,2.33,0,0,0,1-1.87c0-1.31-1.24-2.6-3.72-3.85l-2.87-1.43Q146,28.26,146,22a9,9,0,0,1,3.11-6.89A11.26,11.26,0,0,1,157,12.25a13.75,13.75,0,0,1,11.19,5.63Z"/></g></g></svg>