<svg xmlns="http://www.w3.org/2000/svg" viewBox="0 0 224.56 49.72"><g id="Layer_2" data-name="Layer 2"><g id="Layer_1-2" data-name="Layer 1"><path d="M44.5,10.09l-6.16,6.1A18.21,18.21,0,0,0,24.7,10a15.6,15.6,0,0,0-11.37,4.5A14.78,14.78,0,0,0,8.75,25.44,15.12,15.12,0,0,0,13.5,36.72a16.2,16.2,0,0,0,11.74,4.62,14.42,14.42,0,0,0,7.65-1.9,13.49,13.49,0,0,0,5-6H24.59V25.25H47.72l.06,1.94a22.56,22.56,0,0,1-3.12,11.44,21.92,21.92,0,0,1-8.1,8.25,23.11,23.11,0,0,1-11.65,2.84,25.94,25.94,0,0,1-12.77-3.11,22.69,22.69,0,0,1-8.87-8.86A24.68,24.68,0,0,1,0,25.34,23.05,23.05,0,0,1,6,9.47q7.16-8,18.63-8A28.37,28.37,0,0,1,35.88,3.66,25.76,25.76,0,0,1,44.5,10.09Z"/><path d="M80,14.56H88.5v34H80V45a17,17,0,0,1-5,3.42,14,14,0,0,1-5.45,1,15.14,15.14,0,0,1-11.39-5.11,17.85,17.85,0,0,1-4.81-12.7q0-7.87,4.65-12.91a14.8,14.8,0,0,1,11.3-5A14.4,14.4,0,0,1,75,14.84a15.79,15.79,0,0,1,5,3.47Zm-9,7a8.62,8.62,0,0,0-6.57,2.8,10,10,0,0,0-2.62,7.17,10.16,10.16,0,0,0,2.67,7.25A8.61,8.61,0,0,0,71,41.63a8.82,8.82,0,0,0,6.67-2.8,10.25,10.25,0,0,0,2.64-7.33,10,10,0,0,0-2.64-7.19A8.93,8.93,0,0,0,71,21.56Z"/><path d="M96.19,1.44h8.53V48.56H96.19Z"/><path d="M108.83,14.56h8.69l8.59,20.07,8.57-20.07h8.65l-14.47,34h-5.53Z"/><path d="M173.41,14.56h8.53v34h-8.53V45a17,17,0,0,1-5,3.42,14,14,0,0,1-5.45,1,15.14,15.14,0,0,1-11.39-5.11,17.81,17.81,0,0,1-4.81-12.7q0-7.87,4.65-12.91a14.8,14.8,0,0,1,11.3-5,14.36,14.36,0,0,1,5.74,1.15,15.72,15.72,0,0,1,5,3.47ZM155.63,8.22l-3.44-5.15A13.18,13.18,0,0,1,160.28,0a23.2,23.2,0,0,1,5.25,1,16.67,16.67,0,0,0,4,.68A11,11,0,0,0,175,.13L178.25,5c-2.62,2.24-5.17,3.35-7.62,3.35a16.77,16.77,0,0,1-4.72-.82c-1.5-.43-2.45-.69-2.85-.77a13.35,13.35,0,0,0-1.93-.12A10.88,10.88,0,0,0,155.63,8.22Zm8.81,13.34a8.62,8.62,0,0,0-6.57,2.8,10,10,0,0,0-2.62,7.17,10.19,10.19,0,0,0,2.66,7.25,8.63,8.63,0,0,0,6.56,2.85,8.79,8.79,0,0,0,6.66-2.8,10.22,10.22,0,0,0,2.65-7.33,9.92,9.92,0,0,0-2.65-7.19A8.89,8.89,0,0,0,164.44,21.56Z"/><path d="M206.53,13.69a18.06,18.06,0,0,1,9.05,2.4,17.65,17.65,0,0,1,9,15.44,17.78,17.78,0,0,1-2.39,9,17.21,17.21,0,0,1-6.51,6.55,18,18,0,0,1-9.1,2.36,17,17,0,0,1-12.48-5.21,17.23,17.23,0,0,1-5.17-12.64,17.18,17.18,0,0,1,5.84-13.28A17.08,17.08,0,0,1,206.53,13.69Zm.14,8a8.8,8.8,0,0,0-6.62,2.76,9.86,9.86,0,0,0-2.64,7.08A10,10,0,0,0,200,38.75a8.75,8.75,0,0,0,6.62,2.75,8.86,8.86,0,0,0,6.67-2.78A10,10,0,0,0,216,31.56a9.9,9.9,0,0,0-2.61-7.11A8.86,8.86,0,0,0,206.67,21.72Z"/></g></g></svg>