<svg xmlns="http://www.w3.org/2000/svg" viewBox="0 0 299.72 49.16"><g id="Layer_2" data-name="Layer 2"><g id="Layer_1-2" data-name="Layer 1"><path d="M44.5,9.53l-6.16,6.1A18.21,18.21,0,0,0,24.7,9.44a15.6,15.6,0,0,0-11.37,4.5A14.76,14.76,0,0,0,8.75,24.88,15.15,15.15,0,0,0,13.5,36.16a16.2,16.2,0,0,0,11.74,4.62,14.42,14.42,0,0,0,7.65-1.9,13.6,13.6,0,0,0,5-6H24.59V24.69H47.72l.06,1.94a22.5,22.5,0,0,1-3.12,11.43,21.77,21.77,0,0,1-8.1,8.25,23,23,0,0,1-11.65,2.85,25.94,25.94,0,0,1-12.77-3.11,22.76,22.76,0,0,1-8.87-8.86A24.71,24.71,0,0,1,0,24.78,23.05,23.05,0,0,1,6,8.91q7.16-8,18.63-8A28.36,28.36,0,0,1,35.88,3.09,25.8,25.8,0,0,1,44.5,9.53Z"/><path d="M58.2,0a5.19,5.19,0,0,1,3.85,1.63,5.38,5.38,0,0,1,1.61,3.93,5.33,5.33,0,0,1-1.59,3.89,5.13,5.13,0,0,1-3.8,1.61,5.2,5.2,0,0,1-3.88-1.64,5.48,5.48,0,0,1-1.61-4,5.27,5.27,0,0,1,1.59-3.85A5.23,5.23,0,0,1,58.2,0ZM53.94,14h8.53V48H53.94Z"/><path d="M86.19,13.13a18,18,0,0,1,9,2.4,17.66,17.66,0,0,1,9,15.44,17.88,17.88,0,0,1-2.39,9,17.37,17.37,0,0,1-6.52,6.55,18,18,0,0,1-9.09,2.36,17,17,0,0,1-12.49-5.21A17.29,17.29,0,0,1,68.56,31a17.19,17.19,0,0,1,5.85-13.28A17.06,17.06,0,0,1,86.19,13.13Zm.14,8a8.78,8.78,0,0,0-6.62,2.76A9.82,9.82,0,0,0,77.06,31a10,10,0,0,0,2.62,7.19,9.36,9.36,0,0,0,13.28,0A9.92,9.92,0,0,0,95.63,31,9.87,9.87,0,0,0,93,23.89,8.84,8.84,0,0,0,86.33,21.16Z"/><path d="M107.55,14h8.69l8.59,20.06L133.4,14h8.65L127.58,48h-5.53Z"/><path d="M172.13,14h8.53V48h-8.53V44.41a17,17,0,0,1-5,3.42,14,14,0,0,1-5.45,1.05,15.14,15.14,0,0,1-11.39-5.11,17.81,17.81,0,0,1-4.81-12.71q0-7.87,4.65-12.9a14.8,14.8,0,0,1,11.3-5,14.36,14.36,0,0,1,5.74,1.15,15.72,15.72,0,0,1,5,3.47Zm-9,7a8.63,8.63,0,0,0-6.58,2.8A10.08,10.08,0,0,0,154,31a10.21,10.21,0,0,0,2.66,7.25,8.65,8.65,0,0,0,6.56,2.84,8.78,8.78,0,0,0,6.66-2.79,10.22,10.22,0,0,0,2.65-7.33,9.91,9.91,0,0,0-2.65-7.19A8.89,8.89,0,0,0,163.16,21Z"/><path d="M189.28,14h8.53v3.48a20.64,20.64,0,0,1,5.26-3.4,12.66,12.66,0,0,1,4.82-.95,11.64,11.64,0,0,1,8.58,3.53c2,2,3,4.95,3,8.87V48H211V33.11a37.08,37.08,0,0,0-.55-8.08,5.48,5.48,0,0,0-1.9-3.05,5.35,5.35,0,0,0-3.35-1,6.31,6.31,0,0,0-4.44,1.73,9.18,9.18,0,0,0-2.57,4.79,38.38,38.38,0,0,0-.38,6.9V48h-8.53Z"/><path d="M227.69,14h8.53v3.48a20.47,20.47,0,0,1,5.26-3.4,12.62,12.62,0,0,1,4.82-.95,11.64,11.64,0,0,1,8.58,3.53c2,2,3,4.95,3,8.87V48h-8.43V33.11a37.08,37.08,0,0,0-.55-8.08A5.54,5.54,0,0,0,247,22a5.35,5.35,0,0,0-3.35-1,6.27,6.27,0,0,0-4.44,1.73,9.26,9.26,0,0,0-2.58,4.79,38.72,38.72,0,0,0-.37,6.9V48h-8.53Z"/><path d="M291.19,14h8.53V48h-8.53V44.41a17,17,0,0,1-5,3.42,14,14,0,0,1-5.45,1.05,15.14,15.14,0,0,1-11.39-5.11,17.81,17.81,0,0,1-4.81-12.71q0-7.87,4.65-12.9a14.8,14.8,0,0,1,11.3-5,14.4,14.4,0,0,1,5.75,1.15,15.79,15.79,0,0,1,5,3.47Zm-9,7a8.59,8.59,0,0,0-6.57,2.8A10,10,0,0,0,273,31a10.21,10.21,0,0,0,2.66,7.25,8.65,8.65,0,0,0,6.56,2.84,8.82,8.82,0,0,0,6.67-2.79,10.25,10.25,0,0,0,2.64-7.33,9.94,9.94,0,0,0-2.64-7.19A8.93,8.93,0,0,0,282.22,21Z"/></g></g></svg>