<svg xmlns="http://www.w3.org/2000/svg" viewBox="0 0 151.06 49.72"><g id="Layer_2" data-name="Layer 2"><g id="Layer_1-2" data-name="Layer 1"><path d="M15.5,2.59h8.78v30.5c0,4.86-.38,8.26-1.15,10.22A9.73,9.73,0,0,1,19.31,48a11.35,11.35,0,0,1-6.37,1.74Q5.35,49.72,0,43.06l6.31-5.9a15,15,0,0,0,3.57,3.18,5.74,5.74,0,0,0,2.84.82A2.26,2.26,0,0,0,14.81,40q.69-1.19.69-5.22Z"/><path d="M49.81,13.69a18.06,18.06,0,0,1,9,2.4,17.65,17.65,0,0,1,9,15.44,17.78,17.78,0,0,1-2.39,9,17.21,17.21,0,0,1-6.51,6.55,18,18,0,0,1-9.1,2.36,17,17,0,0,1-12.48-5.21,17.23,17.23,0,0,1-5.17-12.64A17.18,17.18,0,0,1,38,18.31,17.1,17.1,0,0,1,49.81,13.69Zm.14,8a8.8,8.8,0,0,0-6.62,2.76,9.86,9.86,0,0,0-2.64,7.08,10,10,0,0,0,2.61,7.19,8.75,8.75,0,0,0,6.62,2.75,8.86,8.86,0,0,0,6.67-2.78,10,10,0,0,0,2.66-7.16,9.9,9.9,0,0,0-2.61-7.11A8.86,8.86,0,0,0,50,21.72Z"/><path d="M99.91,14.56h8.53v34H99.91V45a17,17,0,0,1-5,3.42,14,14,0,0,1-5.45,1,15.14,15.14,0,0,1-11.39-5.11,17.81,17.81,0,0,1-4.81-12.7q0-7.87,4.65-12.91a14.8,14.8,0,0,1,11.3-5,14.36,14.36,0,0,1,5.74,1.15,15.72,15.72,0,0,1,5,3.47ZM82.13,8.22,78.69,3.07A13.18,13.18,0,0,1,86.78,0,23.2,23.2,0,0,1,92,1a16.67,16.67,0,0,0,4,.68A11,11,0,0,0,101.5.13L104.75,5c-2.62,2.24-5.17,3.35-7.62,3.35a16.77,16.77,0,0,1-4.72-.82c-1.5-.43-2.45-.69-2.85-.77a13.35,13.35,0,0,0-1.93-.12A10.88,10.88,0,0,0,82.13,8.22Zm8.81,13.34a8.62,8.62,0,0,0-6.57,2.8,10,10,0,0,0-2.62,7.17,10.19,10.19,0,0,0,2.66,7.25A8.63,8.63,0,0,0,91,41.63a8.79,8.79,0,0,0,6.66-2.8,10.22,10.22,0,0,0,2.65-7.33,9.92,9.92,0,0,0-2.65-7.19A8.89,8.89,0,0,0,90.94,21.56Z"/><path d="M133,13.69a18.08,18.08,0,0,1,9.05,2.4,17.65,17.65,0,0,1,9,15.44,17.78,17.78,0,0,1-2.39,9,17.21,17.21,0,0,1-6.51,6.55,18,18,0,0,1-9.1,2.36,17,17,0,0,1-12.48-5.21,17.23,17.23,0,0,1-5.17-12.64,17.18,17.18,0,0,1,5.84-13.28A17.08,17.08,0,0,1,133,13.69Zm.14,8a8.78,8.78,0,0,0-6.62,2.76,9.86,9.86,0,0,0-2.64,7.08,10,10,0,0,0,2.61,7.19,8.75,8.75,0,0,0,6.62,2.75,8.87,8.87,0,0,0,6.67-2.78,10,10,0,0,0,2.66-7.16,9.9,9.9,0,0,0-2.61-7.11A8.88,8.88,0,0,0,133.17,21.72Z"/></g></g></svg>