<svg xmlns="http://www.w3.org/2000/svg" viewBox="0 0 136.56 53.63"><g id="Layer_2" data-name="Layer 2"><g id="Layer_1-2" data-name="Layer 1"><path d="M15.5,6.5h8.78V37q0,7.28-1.15,10.22a9.77,9.77,0,0,1-3.82,4.67,11.35,11.35,0,0,1-6.37,1.74Q5.35,53.63,0,47l6.31-5.91a14.9,14.9,0,0,0,3.57,3.19,5.83,5.83,0,0,0,2.84.81,2.25,2.25,0,0,0,2.09-1.18q.69-1.2.69-5.22Z"/><path d="M33.81,18.47h8.63V34.84a22.55,22.55,0,0,0,.66,6.64,5.78,5.78,0,0,0,2.11,2.9,6.11,6.11,0,0,0,3.59,1,6.27,6.27,0,0,0,3.62-1,6,6,0,0,0,2.2-3,22.62,22.62,0,0,0,.54-6.28V18.47h8.53V32.88c0,5.93-.47,10-1.41,12.18a13.2,13.2,0,0,1-5.06,6.14,15.47,15.47,0,0,1-8.5,2.14,15.06,15.06,0,0,1-9-2.5,13.22,13.22,0,0,1-4.86-7q-1-3.1-1-11.25ZM50.16,0H60.25L48.81,12.25H42.69Z"/><path d="M71.31,5.34h8.53V52.47H71.31Z"/><path d="M90.92,4.47a5.22,5.22,0,0,1,3.85,1.62A5.42,5.42,0,0,1,96.38,10a5.33,5.33,0,0,1-1.59,3.89A5.14,5.14,0,0,1,91,15.53a5.25,5.25,0,0,1-3.88-1.64,5.47,5.47,0,0,1-1.6-4,5.27,5.27,0,0,1,1.59-3.85A5.23,5.23,0,0,1,90.92,4.47Zm-4.26,14h8.53v34H86.66Z"/><path d="M128,18.47h8.53v34H128V48.88a16.7,16.7,0,0,1-5,3.42,14.15,14.15,0,0,1-5.45,1,15.12,15.12,0,0,1-11.39-5.11,17.82,17.82,0,0,1-4.8-12.7q0-7.87,4.65-12.9a14.8,14.8,0,0,1,11.3-5,14.4,14.4,0,0,1,5.74,1.16,15.68,15.68,0,0,1,5,3.47Zm-9,7a8.62,8.62,0,0,0-6.57,2.8,10.08,10.08,0,0,0-2.61,7.17,10.17,10.17,0,0,0,2.66,7.25,8.63,8.63,0,0,0,6.55,2.84,8.79,8.79,0,0,0,6.67-2.8,10.22,10.22,0,0,0,2.65-7.32,10,10,0,0,0-2.65-7.19A8.93,8.93,0,0,0,119.06,25.47Z"/></g></g></svg>