<svg xmlns="http://www.w3.org/2000/svg" viewBox="0 0 155.53 48"><g id="Layer_2" data-name="Layer 2"><g id="Layer_1-2" data-name="Layer 1"><path d="M0,1.16H8.84V17L21.32,1.16H31.83l-16,20.51L33.39,47.13H23L8.84,26.7V47.13H0Z"/><path d="M54.66,12.25a18,18,0,0,1,9,2.41,17.28,17.28,0,0,1,6.61,6.53,17.49,17.49,0,0,1,2.38,8.9,17.88,17.88,0,0,1-2.39,9,17.23,17.23,0,0,1-6.52,6.55A18,18,0,0,1,54.69,48,17,17,0,0,1,42.2,42.8,17.27,17.27,0,0,1,37,30.16a17.18,17.18,0,0,1,5.85-13.28A17,17,0,0,1,54.66,12.25Zm.14,8a8.76,8.76,0,0,0-6.62,2.77,9.79,9.79,0,0,0-2.65,7.08,10,10,0,0,0,2.61,7.18,9.37,9.37,0,0,0,13.29,0,9.89,9.89,0,0,0,2.66-7.15A9.86,9.86,0,0,0,61.48,23,8.81,8.81,0,0,0,54.8,20.28Z"/><path d="M88.13,0V16.88a15.78,15.78,0,0,1,5-3.47,14.38,14.38,0,0,1,5.75-1.16,14.87,14.87,0,0,1,11.31,5q4.65,5,4.65,12.91A17.81,17.81,0,0,1,110,42.89,15.14,15.14,0,0,1,98.63,48a14.1,14.1,0,0,1-5.47-1,16.47,16.47,0,0,1-5-3.42v3.6H79.66V0Zm9,20.13a8.88,8.88,0,0,0-6.68,2.75,9.85,9.85,0,0,0-2.66,7.18,10.16,10.16,0,0,0,2.66,7.33,8.81,8.81,0,0,0,6.68,2.8,8.66,8.66,0,0,0,6.58-2.85,10.16,10.16,0,0,0,2.67-7.25,10.07,10.07,0,0,0-2.62-7.17A8.71,8.71,0,0,0,97.09,20.13Z"/><path d="M147,13.13h8.53v34H147v-3.6A16.76,16.76,0,0,1,142,47a14,14,0,0,1-5.45,1,15.11,15.11,0,0,1-11.39-5.11,17.85,17.85,0,0,1-4.81-12.7q0-7.87,4.65-12.91a14.83,14.83,0,0,1,11.3-5A14.41,14.41,0,0,1,142,13.41a15.52,15.52,0,0,1,5,3.47Zm-9,7a8.62,8.62,0,0,0-6.57,2.79,10.12,10.12,0,0,0-2.62,7.17,10.16,10.16,0,0,0,2.67,7.25,8.61,8.61,0,0,0,6.55,2.85,8.79,8.79,0,0,0,6.67-2.8,10.24,10.24,0,0,0,2.65-7.33,9.93,9.93,0,0,0-2.65-7.18A8.89,8.89,0,0,0,138,20.13Z"/></g></g></svg>