<?xml version="1.0" encoding="utf-8"?>
<!-- Generator: Adobe Illustrator 24.1.1, SVG Export Plug-In . SVG Version: 6.00 Build 0)  -->
<svg version="1.1" id="Layer_1" xmlns="http://www.w3.org/2000/svg" xmlns:xlink="http://www.w3.org/1999/xlink" x="0px" y="0px"
	 viewBox="0 0 339.1 96.9" style="enable-background:new 0 0 339.1 96.9;" xml:space="preserve">
<style type="text/css">
	.st0{enable-background:new    ;}
	.st1{fill:#FFFFFF;}
	.st2{fill:#14FF5F;}
</style>
<g id="Layer_2_1_">
	<g id="Layer_1-2">
		<g class="st0">
			<path class="st1" d="M48.4,37.5L44,40.2c-3.8-5.1-9.1-7.6-15.7-7.6c-5.3,0-9.7,1.7-13.2,5.1s-5.2,7.5-5.2,12.4
				c0,3.2,0.8,6.1,2.4,8.9c1.6,2.8,3.8,5,6.6,6.5c2.8,1.5,5.9,2.3,9.4,2.3c6.4,0,11.6-2.5,15.6-7.6l4.4,2.9
				c-2.1,3.1-4.9,5.6-8.4,7.3c-3.5,1.7-7.5,2.6-12,2.6c-6.9,0-12.6-2.2-17.1-6.5c-4.5-4.4-6.8-9.7-6.8-15.9c0-4.2,1.1-8.1,3.2-11.7
				c2.1-3.6,5-6.4,8.7-8.4c3.7-2,7.8-3,12.4-3c2.9,0,5.6,0.4,8.3,1.3s4.9,2,6.8,3.4C45.5,33.5,47.1,35.3,48.4,37.5z"/>
			<path class="st1" d="M102.4,28.4v43.4h-5.5v-7.5c-2.3,2.8-5,5-7.9,6.4c-2.9,1.4-6.1,2.2-9.6,2.2c-6.1,0-11.4-2.2-15.7-6.7
				c-4.4-4.5-6.5-9.9-6.5-16.3c0-6.3,2.2-11.6,6.6-16c4.4-4.4,9.7-6.7,15.8-6.7c3.6,0,6.8,0.8,9.7,2.3c2.9,1.5,5.4,3.8,7.6,6.8v-8
				H102.4z M80.1,32.7c-3.1,0-6,0.8-8.6,2.3c-2.6,1.5-4.7,3.7-6.3,6.4s-2.3,5.7-2.3,8.8c0,3.1,0.8,6,2.4,8.8c1.6,2.8,3.7,5,6.3,6.5
				c2.6,1.6,5.5,2.3,8.5,2.3c3.1,0,6-0.8,8.7-2.3c2.7-1.5,4.8-3.6,6.3-6.3c1.5-2.6,2.2-5.6,2.2-8.9c0-5-1.7-9.2-5-12.6
				C89,34.4,84.9,32.7,80.1,32.7z"/>
			<path class="st1" d="M112.9,28.4h5.7v6.3c1.7-2.5,3.5-4.4,5.4-5.6c1.9-1.2,3.9-1.9,5.9-1.9c1.5,0,3.2,0.5,5,1.5l-2.9,4.7
				c-1.2-0.5-2.2-0.8-3-0.8c-1.9,0-3.7,0.8-5.4,2.3c-1.7,1.5-3,3.9-4,7.1c-0.7,2.5-1,7.5-1,15v14.7h-5.7V28.4z"/>
		</g>
		<g class="st0">
			<path class="st1" d="M300.4,2.1h6v2h-2v8.8h-2.1V4.1h-1.9V2.1z"/>
			<path class="st1" d="M307.8,2.1h5.9v2h-3.9v2h3.9v2h-3.9v2.8h3.9v2h-5.9V2.1z"/>
			<path class="st1" d="M319,2.1h2.1l4.2,10.8h-2.1l-0.8-2.2h-4.4l-0.9,2.2h-2.1L319,2.1z M320,5l-1.5,3.7h2.9L320,5z"/>
			<path class="st1" d="M327.9,2.1h2l2.5,7.5l2.5-7.5h2l1.8,10.8h-2l-1.2-6.8l-2.3,6.8h-1.8l-2.3-6.8l-1.2,6.8h-2L327.9,2.1z"/>
		</g>
		<path class="st2" d="M185.9,2.2h-17.5l-31.1,93.7h13.3l6.6-20.4h39l6.5,20.4h13.9L185.9,2.2z M160.8,64.1L176.6,14l15.8,50.1
			L160.8,64.1z"/>
		<polygon class="st2" points="264.1,12.9 264.1,85 285.7,85 285.7,95.9 229.6,95.9 229.6,85 251.2,85 251.2,12.9 229.6,12.9 
			229.6,2.2 285.7,2.2 285.7,12.9 		"/>
	</g>
</g>
</svg>
