<svg xmlns="http://www.w3.org/2000/svg" viewBox="0 0 174.5 48"><g id="Layer_2" data-name="Layer 2"><g id="Layer_1-2" data-name="Layer 1"><path d="M8,1.16h8.52L27.14,33.22,37.89,1.16h8.52l7.72,46H45.66l-4.93-29L31,47.13H23.26l-9.68-29-5.05,29H0Z"/><path d="M85.25,13.13h8.53v34H85.25v-3.6a16.64,16.64,0,0,1-5,3.42,14,14,0,0,1-5.45,1A15.11,15.11,0,0,1,63.4,42.89a17.85,17.85,0,0,1-4.81-12.7q0-7.87,4.65-12.91a14.83,14.83,0,0,1,11.3-5,14.41,14.41,0,0,1,5.75,1.16,15.52,15.52,0,0,1,5,3.47Zm-9,7a8.62,8.62,0,0,0-6.57,2.79,10.12,10.12,0,0,0-2.62,7.17,10.16,10.16,0,0,0,2.67,7.25,8.61,8.61,0,0,0,6.55,2.85A8.79,8.79,0,0,0,83,37.39a10.24,10.24,0,0,0,2.65-7.33A9.93,9.93,0,0,0,83,22.88,8.89,8.89,0,0,0,76.28,20.13Z"/><path d="M127.5,0H136V47.13H127.5v-3.6a16.64,16.64,0,0,1-5,3.42A14,14,0,0,1,117,48a15.11,15.11,0,0,1-11.39-5.11,17.85,17.85,0,0,1-4.81-12.7q0-7.87,4.65-12.91a14.83,14.83,0,0,1,11.3-5,14.41,14.41,0,0,1,5.75,1.16,15.52,15.52,0,0,1,5,3.47Zm-9,20.13A8.62,8.62,0,0,0,112,22.92a10.12,10.12,0,0,0-2.62,7.17A10.16,10.16,0,0,0,112,37.34a8.61,8.61,0,0,0,6.55,2.85,8.79,8.79,0,0,0,6.67-2.8,10.24,10.24,0,0,0,2.65-7.33,9.93,9.93,0,0,0-2.65-7.18A8.89,8.89,0,0,0,118.53,20.13Z"/><path d="M144.63,13.13h8.62V29.5a22.59,22.59,0,0,0,.66,6.64A5.81,5.81,0,0,0,156,39a6,6,0,0,0,3.59,1,6.34,6.34,0,0,0,3.62-1,6,6,0,0,0,2.21-3,23.12,23.12,0,0,0,.53-6.28V13.13h8.53v14.4q0,8.91-1.41,12.19A13.25,13.25,0,0,1,168,45.86a15.47,15.47,0,0,1-8.5,2.14,15.08,15.08,0,0,1-9.05-2.5,13.18,13.18,0,0,1-4.85-7q-1-3.09-1-11.25Z"/></g></g></svg>