<svg xmlns="http://www.w3.org/2000/svg" viewBox="0 0 162 48.88"><g id="Layer_2" data-name="Layer 2"><g id="Layer_1-2" data-name="Layer 1"><path d="M0,2H9.28q7.53,0,10.86,1.39a11.07,11.07,0,0,1,5.25,4.5,13.94,13.94,0,0,1,1.92,7.46,12.58,12.58,0,0,1-2.51,8A13.09,13.09,0,0,1,18,27.81a39.21,39.21,0,0,1-9.22.72V48H0ZM8.75,20h2.78a15.09,15.09,0,0,0,4.56-.47,4,4,0,0,0,2-1.55,4.56,4.56,0,0,0,.73-2.62,4.18,4.18,0,0,0-2.06-3.89c-1-.6-2.85-.91-5.56-.91H8.75Z"/><path d="M60,14h8.53V48H60V44.41a16.7,16.7,0,0,1-5,3.42,14,14,0,0,1-5.44,1.05,15.16,15.16,0,0,1-11.4-5.11,17.85,17.85,0,0,1-4.8-12.71q0-7.87,4.65-12.9a14.79,14.79,0,0,1,11.3-5,14.39,14.39,0,0,1,5.74,1.15,15.68,15.68,0,0,1,5,3.47Zm-9,7a8.62,8.62,0,0,0-6.57,2.8A10.08,10.08,0,0,0,41.88,31a10.17,10.17,0,0,0,2.66,7.25,8.63,8.63,0,0,0,6.55,2.84,8.82,8.82,0,0,0,6.67-2.79,10.26,10.26,0,0,0,2.65-7.33,10,10,0,0,0-2.65-7.19A8.93,8.93,0,0,0,51.06,21Z"/><path d="M80.52,0a5.19,5.19,0,0,1,3.84,1.63A5.38,5.38,0,0,1,86,5.56a5.33,5.33,0,0,1-1.59,3.89,5.13,5.13,0,0,1-3.8,1.61A5.2,5.2,0,0,1,76.7,9.42a5.48,5.48,0,0,1-1.61-4,5.27,5.27,0,0,1,1.59-3.85A5.23,5.23,0,0,1,80.52,0ZM76.25,14h8.53V48H76.25Z"/><path d="M88.89,14h8.69l8.59,20.06L114.74,14h8.65L108.92,48h-5.53Z"/><path d="M153.47,14H162V48h-8.53V44.41a17,17,0,0,1-5,3.42A14,14,0,0,1,143,48.88a15.14,15.14,0,0,1-11.39-5.11,17.86,17.86,0,0,1-4.81-12.71q0-7.87,4.65-12.9a14.8,14.8,0,0,1,11.3-5,14.4,14.4,0,0,1,5.75,1.15,15.68,15.68,0,0,1,5,3.47Zm-9,7a8.59,8.59,0,0,0-6.57,2.8A10,10,0,0,0,135.31,31,10.17,10.17,0,0,0,138,38.22a8.63,8.63,0,0,0,6.55,2.84,8.82,8.82,0,0,0,6.67-2.79,10.25,10.25,0,0,0,2.64-7.33,9.94,9.94,0,0,0-2.64-7.19A8.93,8.93,0,0,0,144.5,21Z"/></g></g></svg>