<svg xmlns="http://www.w3.org/2000/svg" viewBox="0 0 164.94 48"><g id="Layer_2" data-name="Layer 2"><g id="Layer_1-2" data-name="Layer 1"><path d="M0,1.16H9.28q7.53,0,10.86,1.39a11,11,0,0,1,5.25,4.5,13.88,13.88,0,0,1,1.92,7.45,12.54,12.54,0,0,1-2.51,8A13.1,13.1,0,0,1,18,26.94a39.21,39.21,0,0,1-9.22.72V47.13H0Zm8.75,18h2.78a14.69,14.69,0,0,0,4.56-.48,4,4,0,0,0,2-1.55,4.54,4.54,0,0,0,.73-2.62,4.16,4.16,0,0,0-2.06-3.88q-1.5-.91-5.56-.91H8.75Z"/><path d="M60,13.13h8.53v34H60v-3.6A16.52,16.52,0,0,1,55,47a14,14,0,0,1-5.44,1,15.13,15.13,0,0,1-11.4-5.11,17.84,17.84,0,0,1-4.8-12.7q0-7.87,4.65-12.91a14.82,14.82,0,0,1,11.3-5,14.4,14.4,0,0,1,5.74,1.16,15.52,15.52,0,0,1,5,3.47Zm-9,7a8.65,8.65,0,0,0-6.57,2.79,10.11,10.11,0,0,0-2.61,7.17,10.15,10.15,0,0,0,2.66,7.25,8.61,8.61,0,0,0,6.55,2.85,8.79,8.79,0,0,0,6.67-2.8,10.24,10.24,0,0,0,2.65-7.33,9.93,9.93,0,0,0-2.65-7.18A8.89,8.89,0,0,0,51.06,20.13Z"/><path d="M77.16,13.13h8.62V29.5a22.59,22.59,0,0,0,.66,6.64A5.81,5.81,0,0,0,88.55,39a6,6,0,0,0,3.59,1,6.32,6.32,0,0,0,3.62-1,6,6,0,0,0,2.21-3,23.12,23.12,0,0,0,.53-6.28V13.13H107v14.4q0,8.91-1.4,12.19a13.32,13.32,0,0,1-5.07,6.14A15.47,15.47,0,0,1,92.06,48a15,15,0,0,1-9-2.5,13.14,13.14,0,0,1-4.86-7q-1-3.09-1-11.25Z"/><path d="M114.66,0h8.53V47.13h-8.53Z"/><path d="M146.91,12.25a18,18,0,0,1,9,2.41,17.28,17.28,0,0,1,6.61,6.53,17.49,17.49,0,0,1,2.38,8.9,17.88,17.88,0,0,1-2.39,9A17.23,17.23,0,0,1,156,45.64,18,18,0,0,1,146.94,48a17,17,0,0,1-12.49-5.2,17.27,17.27,0,0,1-5.17-12.64,17.18,17.18,0,0,1,5.85-13.28A17,17,0,0,1,146.91,12.25Zm.14,8a8.76,8.76,0,0,0-6.62,2.77,9.79,9.79,0,0,0-2.65,7.08,10,10,0,0,0,2.62,7.18A8.7,8.7,0,0,0,147,40.06a8.8,8.8,0,0,0,6.66-2.78,9.89,9.89,0,0,0,2.66-7.15A9.86,9.86,0,0,0,153.73,23,8.81,8.81,0,0,0,147.05,20.28Z"/></g></g></svg>