<svg xmlns="http://www.w3.org/2000/svg" viewBox="0 0 2403.12 2224.02"><defs><style>.cls-1{fill:none;stroke:#fff;stroke-linecap:round;stroke-linejoin:round;stroke-width:7px;}</style></defs><g id="Layer_2" data-name="Layer 2"><g id="Layer_2-2" data-name="Layer 2"><path class="cls-1" d="M1022.86,565.7c-43.86,1.31-79.56,2.44-84.23,2.8-13,1-10,6-14,17s-18,9-18,9l-344,15-3.73-.62-8.27-1.38h-15l47-53,37.19-281.85.81-6.15s-4-11,25-11h4.12l1.85,0c2.09,0,4.67,0,7.69.05l-.62,0h-.22c-23.33,1.24-19.82,10.88-19.82,10.88l-.81,6.15S672.63,409.5,671.63,437.5s-1,59,6,74c3.58,7.66,3.5,13.76,2.57,17.89a17,17,0,0,1-2.55,6.09,31.22,31.22,0,0,1,9.11-4.71,28,28,0,0,1,17.56-.15,31.84,31.84,0,0,1,7.68,3.74c.54.36,1.08.74,1.63,1.14l216-15a124.93,124.93,0,0,1,20.43-3.35c17.58-1.46,41.75.32,52.57,18.35,13.46,22.43,18.12,28.21,19.6,29.69A2.28,2.28,0,0,0,1022.86,565.7Z"/><path class="cls-1" d="M1022.23,565.19l-17.37.51c-43.86,1.31-79.56,2.44-84.23,2.8-13,1-10,6-14,17s-18,9-18,9L558.9,608.88l3.73.62,344-15s14,2,18-9,1-16,14-17c4.67-.36,40.37-1.49,84.23-2.8A2.28,2.28,0,0,1,1022.23,565.19Zm179.34,425.1h.06v0Z"/><path class="cls-1" d="M1980.5,612.5a14.9,14.9,0,0,0-4.09-10.69l-10.91,5.69h-95l-2.58.43-9.42,1.57-14.27-.62-3.73.62-344-15s-14,2-18-9-1-16-14-17c-4.67-.36-40.37-1.49-84.23-2.8a2.28,2.28,0,0,0,.63-.51c-75.56-2.21-165.4-4.69-165.4-4.69l-13.87.55h-.13l-13.87-.55s-89.84,2.48-165.4,4.69a2.28,2.28,0,0,0,.63.51c-43.86,1.31-79.56,2.44-84.23,2.8-13,1-10,6-14,17s-18,9-18,9l-344,15-3.73-.62-14.27.62-9.42-1.57-2.58-.43h-95l-10.91-5.69a14.9,14.9,0,0,0-4.09,10.69c0,12-1,151-1,151v5l35,50s15,14,29-8,37-68,37-68-7-21,22,0,269,183,269,183,14,9,14,16,2,10,17,12c14.31,1.91,328,33.84,356.87,36.78h.13c28.87-2.94,342.56-34.87,356.87-36.78,15-2,17-5,17-12s14-16,14-16,240-162,269-183,22,0,22,0,23,46,37,68,29,8,29,8l35-50v-5S1980.5,624.5,1980.5,612.5Zm-561,242-151.65,4.87a87.82,87.82,0,0,1-62.1,30.52h0l-4.09-.39-4.36.41h0a87.73,87.73,0,0,1-62.87-30.57L983.63,854.5s-16,1-14-20l3-31s-3-8,17-10c4.34-.43,16.81-.45,33.69-.2l2.62.05h.5l2.64,0,12.59.24,2.32.05,7.7.17,2,0,5.36.13,1.23,0,5.31.13,6.64.17c13.49.35,27.49.76,41.09,1.17a88,88,0,0,1,175.52,0c13.88-.42,28.18-.84,42-1.2l6.64-.17,5.31-.13L1345,794l4.4-.1,2,0,7.72-.17,2.3-.05c4.38-.09,8.6-.18,12.61-.24l2.59,0h.54l2.58-.05c16.9-.25,29.38-.23,33.72.2,20,2,17,10,17,10l3,31C1435.5,855.5,1419.5,854.5,1419.5,854.5Z"/><path class="cls-1" d="M1698.81,530.62a31.84,31.84,0,0,0-7.68,3.74L1491.5,520.5s-19.07-5.2-38.43-3.35c-17.58-1.46-41.75.32-52.57,18.35-13.46,22.43-18.12,28.21-19.6,29.69-75.56-2.21-165.4-4.69-165.4-4.69l-13.87.55h-.13l-13.87-.55s-89.84,2.48-165.4,4.69c-1.48-1.48-6.14-7.26-19.6-29.69-10.82-18-35-19.81-52.57-18.35-19.36-1.85-38.43,3.35-38.43,3.35L712,534.36a31.84,31.84,0,0,0-7.68-3.74c17.64-10,56.23-32.89,59.31-42.12,4-12-3-35,15-79s66-142,66-142,5.74-9.64-8.6-10.1l206.19,2.19c-2.93,3.48-.59,9.91-.59,9.91s49,118,59,148c14,20,34,68,34,76s8,11,8,11H1260.5s8-3,8-11,20-56,34-76c10-30,59-148,59-148s2.34-6.43-.59-9.91l206.19-2.19c-14.34.46-8.6,10.1-8.6,10.1s48,98,66,142,11,67,15,79C1642.58,497.73,1681.17,520.58,1698.81,530.62Z"/><path class="cls-1" d="M844.63,267.5s-48,98-66,142-11,67-15,79c-3.08,9.23-41.67,32.08-59.31,42.12a31.84,31.84,0,0,1,7.68,3.74l-16.37,1.14a32.87,32.87,0,0,0-8.87-4.73,27.2,27.2,0,0,0-6.56-1.38c-11.54-1-20.06,5.7-20.55,6.09.34-.45,6.8-9.37,0-24-7-15-7-46-6-74s-33.81-164.85-33.81-164.85l.81-6.15s-4-11,25-11h4.12l1.85,0c2.09,0,4.67,0,7.69.05,27.24.25,91.39.91,175,1.79l1.76,0C850.37,257.86,844.63,267.5,844.63,267.5Z"/><path class="cls-1" d="M1022.23,565.19l-17.37.51c-.26-.1-3.19-1.8-20.23-30.2-7.4-12.33-21-17.06-34.57-18.35,17.58-1.46,41.75.32,52.57,18.35C1016.09,557.93,1020.75,563.71,1022.23,565.19Z"/><path class="cls-1" d="M2397.5,1711.5s-11-118-33-251-195-162-195-162l5-198,36-110,4-58a91.77,91.77,0,0,0-.45-17.93c-1.18-8.7-4.21-17.6-11.55-19.07-15-3-14-25-19-51s-20-27-20-27l-182-49-35,50s-15,14-29-8-37-68-37-68,7-21-22,0-269,183-269,183-14,9-14,16-2,10-17,12c-14.31,1.91-328,33.84-356.87,36.78v0h-.13v0c-28.87-2.94-342.56-34.87-356.87-36.78-15-2-17-5-17-12s-14-16-14-16-240-162-269-183-22,0-22,0-23,46-37,68-29,8-29,8l-35-50-182,49s-15,1-20,27-4,48-19,51c-7.34,1.47-10.37,10.37-11.55,19.07a91.77,91.77,0,0,0-.45,17.93l4,58,36,110,5,198s-173,29-195,162-33,251-33,251-12,291,21,378,122,132,206,131,161-58,186-113,36-236,36-236,0-10,8-10h78s19,0,20-32,4-64,4-64-1-19,34-19,137-4,137-4,16,7,16-14v-84s-4-8-16-8-92,3-92,3-11-4,0-17,18-62,18-62l94,2,69,32s6,2,7,14l16,178s-3,12,22,25,43,24,85,22c13.92-.66,74.75-1,149.86-1.14,30.69-.06,63.77-.09,97-.1h.13c33.11,0,66,0,96.64.09,75.28.16,136.29.49,150.23,1.15,42,2,60-9,85-22s22-25,22-25l16-178c1-12,7-14,7-14l69-32,94-2s7,49,18,62,0,17,0,17-80-3-92-3-16,8-16,8v84c0,21,16,14,16,14s102,4,137,4,34,19,34,19,3,32,4,64,20,32,20,32h78c8,0,8,10,8,10s11,181,36,236,102,112,186,113,173-44,206-131S2397.5,1711.5,2397.5,1711.5ZM461.63,921.5s18-18,20-55c0,0,76-64,125,12s0,121-41,129S462.63,990.5,461.63,921.5Zm100,232s-5-13-13-18-8-20,8-18l29,10s8,2,8,13c0,5.17,2.21,27.17,4.56,49,.14,1.38.29,2.75.44,4.12.9,8.33,1.8,16.49,2.59,23.51,1.39,12.47,2.41,21.37,2.41,21.37s0,6-11,2-23-4-23-13c0-3.4-2-7.09-4.49-10.37h0a60.88,60.88,0,0,0-9.5-9.63s-12.06-9.28-1.33-18c.41-.34.85-.67,1.33-1C568.63,1179.5,561.63,1153.5,561.63,1153.5Zm75,312c-29-7-135-58-135-58s-12-2-10-21v-39s-4-10,10-5l104,35s9,4,12,11,37,65,37,65S665.63,1472.5,636.63,1465.5Zm129-427c-30,20-126,57-142-52,0,0,13-11,17-29s4-28,4-28,46-45,95-11S795.63,1018.5,765.63,1038.5Zm871.87,0c-30-20-23-86,26-120s95,11,95,11,0,10,4,28,17,29,17,29C1763.5,1095.5,1667.5,1058.5,1637.5,1038.5Zm264,369s-106,51-135,58-18-12-18-12,34-58,37-65,12-11,12-11l104-35c14-5,10,5,10,5v39C1913.5,1405.5,1901.5,1407.5,1901.5,1407.5Zm-54-219c.48.33.92.66,1.33,1,10.73,8.72-1.33,18-1.33,18a60.88,60.88,0,0,0-9.5,9.63h0c-2.49,3.28-4.49,7-4.49,10.37,0,9-12,9-23,13s-11-2-11-2,2.5-21.75,5-44.88c.15-1.37.3-2.74.44-4.12,2.35-21.83,4.56-43.83,4.56-49,0-11,8-13,8-13l29-10c16-2,16,13,8,18s-13,18-13,18S1834.5,1179.5,1847.5,1188.5Zm-10-181c-41-8-90-53-41-129s125-12,125-12c2,37,20,55,20,55C1940.5,990.5,1878.5,1015.5,1837.5,1007.5Z"/><path class="cls-1" d="M561.63,1153.5s-5-13-13-18-8-20,8-18l29,10s8,2,8,13c0,5.17,2.21,27.17,4.56,49,.14,1.38.29,2.75.44,4.12.9,8.33,1.8,16.49,2.59,23.51,1.39,12.47,2.41,21.37,2.41,21.37s0,6-11,2-23-4-23-13c0-3.4-2-7.09-4.49-10.37h0a60.88,60.88,0,0,0-9.5-9.63s-12.06-9.28-1.33-18c.41-.34.85-.67,1.33-1C568.63,1179.5,561.63,1153.5,561.63,1153.5Z"/><path class="cls-1" d="M461.63,921.5s18-18,20-55c0,0,76-64,125,12s0,121-41,129S462.63,990.5,461.63,921.5Z"/><path class="cls-1" d="M654.63,1453.5s11,19-18,12-135-58-135-58-12-2-10-21v-39s-4-10,10-5l104,35s9,4,12,11S654.63,1453.5,654.63,1453.5Z"/><path class="cls-1" d="M765.63,1038.5c-30,20-126,57-142-52,0,0,13-11,17-29s4-28,4-28,46-45,95-11S795.63,1018.5,765.63,1038.5Z"/><path class="cls-1" d="M1201.57,990.29h-.07v0Z"/><polyline class="cls-1" points="761.63 1131.5 774.63 1170.5 325.63 1049.5 189.08 914.57"/><path class="cls-1" d="M565.63,1007.5c-41,8-103-17-104-86,0,0,18-18,20-55,0,0,76-64,125,12S606.63,999.5,565.63,1007.5Z"/><path class="cls-1" d="M765.63,1038.5c-30,20-126,57-142-52,0,0,13-11,17-29s4-28,4-28,46-45,95-11S795.63,1018.5,765.63,1038.5Z"/><path class="cls-1" d="M636.63,1465.5c-29-7-135-58-135-58s-12-2-10-21v-39s-4-10,10-5l104,35s9,4,12,11,37,65,37,65S665.63,1472.5,636.63,1465.5Z"/><path class="cls-1" d="M603.63,1238.5s0,6-11,2-23-4-23-13c0-3.4-2-7.09-4.49-10.37h0a60.88,60.88,0,0,0-9.5-9.63s-12.06-9.28-1.33-18c.41-.34.85-.67,1.33-1,13-9,6-35,6-35s-5-13-13-18-8-20,8-18l29,10s8,2,8,13c0,5.17,2.21,27.17,4.56,49,.14,1.38.29,2.75.44,4.12.9,8.33,1.8,16.49,2.59,23.51C602.61,1229.6,603.63,1238.5,603.63,1238.5Z"/><line class="cls-1" x1="553.63" y1="1189.5" x2="598.43" y2="1189.5"/><line class="cls-1" x1="601.22" y1="1217.13" x2="565.14" y2="1217.13"/><line class="cls-1" x1="902.63" y1="623.5" x2="937.63" y2="861.5"/><path class="cls-1" d="M1134.38,859.34,983.63,854.5s-16,1-14-20l3-31s-3-8,17-10c4.34-.43,16.81-.45,33.69-.2l2.62.05h.5l2.64,0,12.59.24,2.32.05,7.7.17,2,0,5.36.13,1.23,0,5.31.13,6.64.17c13.49.35,27.49.76,41.09,1.17-.16,2.13-.24,4.29-.24,6.46A87.62,87.62,0,0,0,1134.38,859.34Z"/><path class="cls-1" d="M1419.5,854.5l-151.65,4.87A87.74,87.74,0,0,0,1289.13,802c0-2.16-.08-4.31-.24-6.43,13.88-.42,28.18-.84,42-1.2l6.64-.17,5.31-.13L1345,794l4.4-.1,2,0,7.72-.17,2.3-.05c4.38-.09,8.6-.18,12.61-.24l2.59,0h.54l2.58-.05c16.9-.25,29.38-.23,33.72.2,20,2,17,10,17,10l3,31C1435.5,855.5,1419.5,854.5,1419.5,854.5Z"/><line class="cls-1" x1="535.59" y1="607.5" x2="535.21" y2="607.93"/><path class="cls-1" d="M834.27,257.38c-15.57.08-138.8-1.33-175.6-1.76h-.22l-6.85-.08"/><path class="cls-1" d="M704.32,530.62c-5.29,3-8.69,4.88-8.69,4.88"/><path class="cls-1" d="M1004.88,565.71h0"/><path class="cls-1" d="M659.63,535.5l0,0c-12,11-10-8-13-23s-17-5-17-5l-20,12s-9,5-9,18-6,14-6,14l-12,3"/><path class="cls-1" d="M1958.41,601.81l-10.91,5.69h-80l-47-53-37.19-281.85-.81-6.15s4-11-25-11h-5.91c-2.1,0-4.7,0-7.75.05-1.35-.06-2.8-.09-4.34-.09h-4.12c-18.41.13-88.69.85-184.52,1.86l-1.76,0-206.19,2.19a6.42,6.42,0,0,0-4.41-2.09c-8.83-1-132.3,0-136.87,0h-.13c-4.58,0-128-1-136.87,0a6.42,6.42,0,0,0-4.41,2.09L854,257.4l-1.76,0c-95.83-1-166.11-1.73-184.52-1.86h-4.12c-1.54,0-3,0-4.34.09-3,0-5.6,0-7.69-.05l-1.85,0h-4.12c-29,0-25,11-25,11l-.81,6.15L582.63,554.5l-47,53h-80l-10.91-5.69a16.64,16.64,0,0,1,6.91-4.31s15-175,26-266,52-140,93-155c40.64-14.87,620.72-7.14,630.87-7h.13c10-.14,590.22-7.87,630.87,7,41,15,82,64,93,155s26,266,26,266A16.64,16.64,0,0,1,1958.41,601.81Z"/><path class="cls-1" d="M1867.54,607.5h-15l-8.27,1.38-3.73.62-344-15s-14,2-18-9-1-16-14-17c-4.67-.36-40.37-1.49-84.23-2.8a2.28,2.28,0,0,0,.63-.51c1.48-1.48,6.14-7.26,19.6-29.69,10.82-18,35-19.81,52.57-18.35a124.93,124.93,0,0,1,20.43,3.35l216,15c.55-.4,1.09-.78,1.63-1.14a31.84,31.84,0,0,1,7.68-3.74,28,28,0,0,1,17.56.15,31.22,31.22,0,0,1,9.11,4.71,17,17,0,0,1-2.55-6.09c-.93-4.13-1-10.23,2.57-17.89,7-15,7-46,6-74s33.81-164.85,33.81-164.85l-.81-6.15s3.51-9.64-19.82-10.88h-.22l-.62,0c3.05,0,5.65,0,7.75-.05h5.91c29,0,25,11,25,11l.81,6.15L1820.5,554.5Z"/><path class="cls-1" d="M1201.5,990.28v0h0Zm313-395.78s-14,2-18-9-1-16-14-17c-4.67-.36-40.37-1.49-84.23-2.8l-17.37-.51a2.28,2.28,0,0,1-.63.51c43.86,1.31,79.56,2.44,84.23,2.8,13,1,10,6,14,17s18,9,18,9l344,15,3.73-.62Z"/><path class="cls-1" d="M1453.07,517.15c-13.52,1.29-27.17,6-34.57,18.35-17,28.4-20,30.1-20.23,30.2l-17.37-.51c1.48-1.48,6.14-7.26,19.6-29.69C1411.32,517.47,1435.49,515.69,1453.07,517.15Z"/><path class="cls-1" d="M1749.5,437.5c1,28,1,59-6,74-6.82,14.61-.36,23.53,0,24-.49-.39-9-7.1-20.55-6.09a27.2,27.2,0,0,0-6.56,1.38,32.87,32.87,0,0,0-8.87,4.73l-16.37-1.14a31.84,31.84,0,0,1,7.68-3.74c-17.64-10-56.23-32.89-59.31-42.12-4-12,3-35-15-79s-66-142-66-142-5.74-9.64,8.6-10.1l1.76,0c83.59-.88,147.74-1.54,175-1.79,3.05,0,5.65,0,7.75-.05h5.91c29,0,25,11,25,11l.81,6.15S1748.5,409.5,1749.5,437.5Z"/><path class="cls-1" d="M1201.63,990.28v0h0Z"/><path class="cls-1" d="M1637.5,1038.5c-30-20-23-86,26-120s95,11,95,11,0,10,4,28,17,29,17,29C1763.5,1095.5,1667.5,1058.5,1637.5,1038.5Z"/><path class="cls-1" d="M1841.5,1153.5s-7,26,6,35c.48.33.92.66,1.33,1,10.73,8.72-1.33,18-1.33,18a60.88,60.88,0,0,0-9.5,9.63h0c-2.49,3.28-4.49,7-4.49,10.37,0,9-12,9-23,13s-11-2-11-2,2.5-21.75,5-44.88c.15-1.37.3-2.74.44-4.12,2.35-21.83,4.56-43.83,4.56-49,0-11,8-13,8-13l29-10c16-2,16,13,8,18S1841.5,1153.5,1841.5,1153.5Z"/><path class="cls-1" d="M1911.5,1347.5v39c2,19-10,21-10,21s-106,51-135,58-18-12-18-12,34-58,37-65,12-11,12-11l104-35C1915.5,1337.5,1911.5,1347.5,1911.5,1347.5Z"/><path class="cls-1" d="M1941.5,921.5c-1,69-63,94-104,86s-90-53-41-129,125-12,125-12C1923.5,903.5,1941.5,921.5,1941.5,921.5Z"/><polyline class="cls-1" points="1641.5 1131.5 1628.5 1170.5 2077.5 1049.5 2214.05 914.57"/><path class="cls-1" d="M1941.5,921.5c-1,69-63,94-104,86s-90-53-41-129,125-12,125-12C1923.5,903.5,1941.5,921.5,1941.5,921.5Z"/><path class="cls-1" d="M1779.5,986.5c-16,109-112,72-142,52s-23-86,26-120,95,11,95,11,0,10,4,28S1779.5,986.5,1779.5,986.5Z"/><path class="cls-1" d="M1911.5,1386.5c2,19-10,21-10,21s-106,51-135,58-18-12-18-12,34-58,37-65,12-11,12-11l104-35c14-5,10,5,10,5Z"/><path class="cls-1" d="M1854.5,1135.5c-8,5-13,18-13,18s-7,26,6,35c.48.33.92.66,1.33,1,10.73,8.72-1.33,18-1.33,18a60.88,60.88,0,0,0-9.5,9.63h0c-2.49,3.28-4.49,7-4.49,10.37,0,9-12,9-23,13s-11-2-11-2,2.5-21.75,5-44.88c.15-1.37.3-2.74.44-4.12,2.35-21.83,4.56-43.83,4.56-49,0-11,8-13,8-13l29-10C1862.5,1115.5,1862.5,1130.5,1854.5,1135.5Z"/><line class="cls-1" x1="1849.5" y1="1189.5" x2="1804.7" y2="1189.5"/><line class="cls-1" x1="1837.99" y1="1217.13" x2="1801.92" y2="1217.13"/><line class="cls-1" x1="1500.5" y1="623.5" x2="1465.5" y2="861.5"/><line class="cls-1" x1="1867.92" y1="607.93" x2="1867.54" y2="607.5"/><path class="cls-1" d="M1752.46,255.53h-.87l-6.91.08h-.22c-36.8.43-160,1.84-175.6,1.76"/><path class="cls-1" d="M1707.5,535.5s-3.4-1.86-8.69-4.88"/><path class="cls-1" d="M1398.27,565.7h0"/><path class="cls-1" d="M1743.5,535.5l0,0c12,11,10-8,13-23s17-5,17-5l20,12s9,5,9,18,6,14,6,14l12,3"/><path class="cls-1" d="M1277.35,846a88.19,88.19,0,0,1-71.6,43.89h0l-4.09-.39-4.36.41h0A88,88,0,0,1,1113.13,802c0-2.17.08-4.33.24-6.46A88,88,0,0,1,1201.13,714l-13,79-5.7,4.79L1125.13,846l76-28Z"/><path class="cls-1" d="M1205.72,889.89c-1.52.07-3,.11-4.59.11-1.29,0-2.58,0-3.86-.09l4.36-.41Z"/><path class="cls-1" d="M1289.13,802a87.56,87.56,0,0,1-11.78,44l-56.59-48.21-5.63-4.79-14-79a88,88,0,0,1,87.76,81.57C1289.05,797.69,1289.13,799.84,1289.13,802Z"/><polygon class="cls-1" points="1277.35 846 1201.13 818 1125.13 846 1182.43 797.79 1188.13 793 1201.13 714 1215.13 793 1220.76 797.79 1277.35 846"/><path class="cls-1" d="M1226.63,952.5s0,22-25,22-25-22-25-22l19.7-62.5.92-.09h0l4.36-.41,4.09.39h0l1.18.11Z"/><circle class="cls-1" cx="1244.03" cy="1251.09" r="27.41"/><circle class="cls-1" cx="1159.03" cy="1251.24" r="27.41"/><rect class="cls-1" x="1117.03" y="1213.24" width="170" height="76"/><ellipse class="cls-1" cx="2007.03" cy="1121.84" rx="31.32" ry="23.98" transform="translate(-158.86 1893.6) rotate(-48.82)"/><ellipse class="cls-1" cx="1922.03" cy="1144.77" rx="31.32" ry="23.98" transform="translate(-205.14 1837.46) rotate(-48.82)"/><polygon class="cls-1" points="2050.03 1148.47 1880.03 1194.02 1880.03 1118.02 2050.03 1072.47 2050.03 1148.47"/><ellipse class="cls-1" cx="395.63" cy="1121.84" rx="23.98" ry="31.32" transform="translate(-640.84 538.07) rotate(-41.18)"/><ellipse class="cls-1" cx="480.63" cy="1144.77" rx="23.98" ry="31.32" transform="translate(-634.9 599.71) rotate(-41.18)"/><polygon class="cls-1" points="352.63 1148.47 522.63 1194.02 522.63 1118.02 352.63 1072.47 352.63 1148.47"/><rect class="cls-1" x="1136.63" y="120.5" width="130" height="48"/><rect class="cls-1" x="1115.63" y="3.5" width="173" height="117" rx="40.4"/><rect class="cls-1" x="1202.63" y="20.3" width="66.4" height="59.2" rx="17.8"/><path class="cls-1" d="M1201.63,1832.26h-.13c-33.24,0-66.32,0-97,.1l41.72,134.13h110.34l41.72-134.14C1267.68,1832.3,1234.74,1832.27,1201.63,1832.26Zm23.5,102.24h-47.5v-78h47.5Z"/><path class="cls-1" d="M233.63,1298.5s211-9,212,178c.71,133,9,395,9,395"/><path class="cls-1" d="M2169.63,1298.5s-211-9-212,178c-.71,133-9,395-9,395"/><path class="cls-1" d="M639.5,1629s-67.16,97.57-74,132"/><path class="cls-1" d="M1763.48,1629s67.16,97.57,74,132"/><path class="cls-1" d="M818.48,1591.65c0,79.14-66.85,71.15-66.85,71.15"/><path class="cls-1" d="M751.63,1713.2s67,16.3,67-121.7"/><path class="cls-1" d="M1584.78,1591.65c0,79.14,66.85,71.15,66.85,71.15"/><path class="cls-1" d="M1651.63,1713.2s-67,16.3-67-121.7"/></g></g></svg>